<svg width="200" height="120" xmlns="http://www.w3.org/2000/svg">
<defs>
<linearGradient id="sky" x1="0" y1="0" x2="0" y2="1">
<stop offset="0%" stop-color="#050510"/>
<stop offset="100%" stop-color="#0a1a3a"/>
</linearGradient>
</defs>
<rect width="200" height="84" fill="url(#sky)"/>
<rect x="0" y="44" width="14" height="40" fill="#1e1e2e"/>
<rect x="14" y="24" width="14" height="60" fill="#222838"/>
<rect x="28" y="54" width="14" height="30" fill="#1e1e2e"/>
<rect x="42" y="14" width="14" height="70" fill="#222838"/>
<rect x="56" y="34" width="14" height="50" fill="#1e1e2e"/>
<rect x="70" y="4" width="14" height="80" fill="#222838"/>
<rect x="84" y="44" width="14" height="40" fill="#1e1e2e"/>
<rect x="98" y="29" width="14" height="55" fill="#222838"/>
<rect x="112" y="54" width="14" height="30" fill="#1e1e2e"/>
<rect x="126" y="19" width="14" height="65" fill="#222838"/>
<rect x="140" y="44" width="14" height="40" fill="#1e1e2e"/>
<rect x="154" y="34" width="14" height="50" fill="#222838"/>
<rect x="168" y="19" width="14" height="65" fill="#1e1e2e"/>
<rect x="182" y="44" width="18" height="40" fill="#222838"/>
<rect x="16" y="28" width="4" height="4" fill="#FFCC66"/>
<rect x="44" y="18" width="4" height="4" fill="#FFCC66"/>
<rect x="58" y="38" width="4" height="4" fill="#FFCC66"/>
<rect x="72" y="8" width="4" height="4" fill="#FFCC66"/>
<rect x="86" y="48" width="4" height="4" fill="#FFCC66"/>
<rect x="100" y="33" width="4" height="4" fill="#FFCC66"/>
<rect x="128" y="23" width="4" height="4" fill="#FFCC66"/>
<rect x="170" y="23" width="4" height="4" fill="#FFCC66"/>
<rect y="84" width="200" height="36" fill="#0a0a14"/>
</svg>
